<svg xmlns="http://www.w3.org/2000/svg" viewBox="0 0 148.91 16.02"><title>logo</title><path d="M13.69,6.8A7.21,7.21,0,0,1,13,10.07a6.26,6.26,0,0,1-2.07,2.41,6.62,6.62,0,0,1-3.12,1.13c.63.27,1.15.48,1.57.61a3.62,3.62,0,0,0,1.15.2,3.29,3.29,0,0,0,.72-.09L10.51,16A2.58,2.58,0,0,1,10,16a3.46,3.46,0,0,1-1-.16,11.52,11.52,0,0,1-1.4-.58c-.59-.26-1-.45-1.39-.56a2.94,2.94,0,0,0-1-.17,2.06,2.06,0,0,0-.68.11,2.72,2.72,0,0,0-.61.35l-.63-.84a2.82,2.82,0,0,1,1.44-.79,6.19,6.19,0,0,1-3.45-2.46A7.23,7.23,0,0,1,0,6.77,7.08,7.08,0,0,1,.86,3.28,6.14,6.14,0,0,1,3.27.87,7,7,0,0,1,6.79,0a7.17,7.17,0,0,1,3.58.88,6.29,6.29,0,0,1,2.45,2.43A7,7,0,0,1,13.69,6.8ZM6.84,11.92a4.25,4.25,0,0,0,2.46-.73,4.9,4.9,0,0,0,1.64-1.91,5.6,5.6,0,0,0,.57-2.48,5.29,5.29,0,0,0-.61-2.53A4.57,4.57,0,0,0,9.19,2.44a4.63,4.63,0,0,0-2.48-.67,4.31,4.31,0,0,0-2.37.65,4.43,4.43,0,0,0-1.6,1.8,5.68,5.68,0,0,0-.57,2.57,6,6,0,0,0,.57,2.66,4.3,4.3,0,0,0,1.63,1.82A4.67,4.67,0,0,0,6.84,11.92Zm15.64-7V4.23H24.1v3.5H22.48a2.12,2.12,0,0,0-.81-1.55,2.62,2.62,0,0,0-1.62-.53,2.49,2.49,0,0,0-1.42.42,2.8,2.8,0,0,0-1,1.15,3.58,3.58,0,0,0-.35,1.57,3.53,3.53,0,0,0,.78,2.37,2.53,2.53,0,0,0,2,.92,2.83,2.83,0,0,0,2.77-1.82l1.51.72a4.45,4.45,0,0,1-4.36,2.76,4.65,4.65,0,0,1-2.45-.65,4.41,4.41,0,0,1-1.66-1.79,5.37,5.37,0,0,1-.59-2.51A5.09,5.09,0,0,1,16,6.33,4.32,4.32,0,0,1,17.58,4.6,4.44,4.44,0,0,1,19.89,4,3.87,3.87,0,0,1,22.48,4.9Zm12.75,4a4.8,4.8,0,0,1-4.85,4.88,4.9,4.9,0,0,1-2.5-.65,4.69,4.69,0,0,1-1.74-1.77,5,5,0,0,1-.62-2.46,5,5,0,0,1,.62-2.51,4.52,4.52,0,0,1,1.73-1.74A5,5,0,0,1,30.38,4a4.62,4.62,0,0,1,2.47.67,4.86,4.86,0,0,1,2.38,4.21ZM30.38,12a2.77,2.77,0,0,0,1.49-.42,2.93,2.93,0,0,0,1.05-1.13,3.22,3.22,0,0,0,.38-1.56,3.17,3.17,0,0,0-.38-1.54,3.05,3.05,0,0,0-1.05-1.15,2.81,2.81,0,0,0-3,0,3,3,0,0,0-1.06,1.14,3.28,3.28,0,0,0,0,3.1,2.94,2.94,0,0,0,1.07,1.14A2.8,2.8,0,0,0,30.38,12Zm15-4.72v4.6h1.54v1.61H43.58V7.37a2.42,2.42,0,0,0-.25-1.25.94.94,0,0,0-.83-.38,4.64,4.64,0,0,0-2.72,1.19v4.92h1.59v1.61h-5V11.85H38v-6H36.36V4.23h3.42V5.34A5.54,5.54,0,0,1,43,4.1a2.16,2.16,0,0,1,1.83.77A3.84,3.84,0,0,1,45.4,7.25ZM55.1,4.9V4.23h1.62v3.5H55.1a2.12,2.12,0,0,0-.81-1.55,2.65,2.65,0,0,0-1.63-.53,2.52,2.52,0,0,0-1.42.42,2.88,2.88,0,0,0-1,1.15,3.57,3.57,0,0,0-.34,1.57,3.57,3.57,0,0,0,.77,2.37,2.56,2.56,0,0,0,2,.92,2.82,2.82,0,0,0,2.77-1.82L57,11a4.44,4.44,0,0,1-4.36,2.76,4.67,4.67,0,0,1-2.45-.65,4.39,4.39,0,0,1-1.65-1.79A5.37,5.37,0,0,1,48,8.79a5.2,5.2,0,0,1,.59-2.46A4.39,4.39,0,0,1,50.19,4.6,4.5,4.5,0,0,1,52.51,4,3.89,3.89,0,0,1,55.1,4.9ZM62.28,12a4.21,4.21,0,0,0,2.64-1.19v-5H63.29V4.23h3.45v7.62h1.59v1.61H64.92V12.4a5,5,0,0,1-3,1.22A2.32,2.32,0,0,1,60,12.85a4.18,4.18,0,0,1-.62-2.57V5.85H58.05V4.23h3.11v6.43a1.74,1.74,0,0,0,.26,1.05A1,1,0,0,0,62.28,12ZM72.77,9.76v2.09h2v1.61H69.12V11.85H71v-6H69.12V4.23h3.29V6.32a3.66,3.66,0,0,1,1.38-1.73,4.7,4.7,0,0,1,2.35-.49h.41V5.94h-.39a4.78,4.78,0,0,0-2.2.39A1.88,1.88,0,0,0,73,7.5,8.11,8.11,0,0,0,72.77,9.76Zm9.67-5.14V4.23H84V7.29H82.44V6.73A2.51,2.51,0,0,0,80.28,5.6a2,2,0,0,0-1.18.32,1,1,0,0,0-.46.81.84.84,0,0,0,.35.71,4.22,4.22,0,0,0,1.56.44l1.22.24c1.83.34,2.74,1.23,2.74,2.68a2.48,2.48,0,0,1-1,2,4.13,4.13,0,0,1-2.63.77,4.2,4.2,0,0,1-1.27-.19A3.65,3.65,0,0,1,78.57,13v.5H77V10.3h1.62v.32a1.6,1.6,0,0,0,.74,1.07,2.51,2.51,0,0,0,1.42.4,2.6,2.6,0,0,0,1.39-.31,1,1,0,0,0,.51-.93.73.73,0,0,0-.4-.67,6.49,6.49,0,0,0-1.63-.46l-.94-.2a3.75,3.75,0,0,1-2-1A2.42,2.42,0,0,1,77,6.8a2.37,2.37,0,0,1,.47-1.47,3,3,0,0,1,1.23-.92,4.11,4.11,0,0,1,1.54-.31A4.48,4.48,0,0,1,82.44,4.62ZM95.58,8.86a4.8,4.8,0,0,1-.64,2.46,4.87,4.87,0,0,1-1.75,1.77,4.8,4.8,0,0,1-2.45.65,4.94,4.94,0,0,1-2.51-.65,4.66,4.66,0,0,1-1.73-1.77,4.89,4.89,0,0,1-.62-2.46,5,5,0,0,1,.62-2.51,4.49,4.49,0,0,1,1.72-1.74A5,5,0,0,1,90.74,4a4.65,4.65,0,0,1,2.47.67A4.77,4.77,0,0,1,95,6.42,4.9,4.9,0,0,1,95.58,8.86ZM90.74,12a2.74,2.74,0,0,0,1.48-.42,3,3,0,0,0,1.06-1.13,3.33,3.33,0,0,0,.38-1.56,3.28,3.28,0,0,0-.38-1.54,3.08,3.08,0,0,0-1.06-1.15,2.71,2.71,0,0,0-1.5-.43,2.66,2.66,0,0,0-1.48.43,2.94,2.94,0,0,0-1.07,1.14,3.35,3.35,0,0,0,0,3.1,3,3,0,0,0,1.07,1.14A2.83,2.83,0,0,0,90.74,12Zm11.81-7.35V4.23h1.58V7.29h-1.58V6.73a2.51,2.51,0,0,0-2.16-1.13,2,2,0,0,0-1.18.32,1,1,0,0,0-.46.81.84.84,0,0,0,.35.71,4.22,4.22,0,0,0,1.56.44l1.22.24c1.83.34,2.74,1.23,2.74,2.68a2.48,2.48,0,0,1-1,2,4.13,4.13,0,0,1-2.63.77,4.2,4.2,0,0,1-1.27-.19A3.85,3.85,0,0,1,98.67,13v.5H97.06V10.3h1.61v.32a1.65,1.65,0,0,0,.75,1.07,2.49,2.49,0,0,0,1.42.4,2.63,2.63,0,0,0,1.39-.31,1,1,0,0,0,.51-.93.73.73,0,0,0-.4-.67,6.49,6.49,0,0,0-1.63-.46l-.94-.2a3.75,3.75,0,0,1-2-1,2.42,2.42,0,0,1-.65-1.75,2.31,2.31,0,0,1,.47-1.47,3,3,0,0,1,1.23-.92,4.11,4.11,0,0,1,1.54-.31A4.48,4.48,0,0,1,102.55,4.62ZM107,13.46V11.13h2.35v2.33ZM118.8,4.9V4.23h1.62v3.5H118.8A2.12,2.12,0,0,0,118,6.18a2.64,2.64,0,0,0-1.62-.53,2.49,2.49,0,0,0-1.42.42,2.8,2.8,0,0,0-1,1.15,3.58,3.58,0,0,0-.35,1.57,3.53,3.53,0,0,0,.78,2.37,2.53,2.53,0,0,0,2,.92,2.81,2.81,0,0,0,2.76-1.82l1.52.72a4.45,4.45,0,0,1-4.36,2.76,4.65,4.65,0,0,1-2.45-.65,4.41,4.41,0,0,1-1.66-1.79,5.37,5.37,0,0,1-.59-2.51,5.09,5.09,0,0,1,.6-2.46A4.32,4.32,0,0,1,113.9,4.6,4.44,4.44,0,0,1,116.21,4,3.87,3.87,0,0,1,118.8,4.9Zm12.75,4a4.8,4.8,0,0,1-4.85,4.88,4.9,4.9,0,0,1-2.5-.65,4.69,4.69,0,0,1-1.74-1.77,5,5,0,0,1-.62-2.46,5,5,0,0,1,.62-2.51,4.52,4.52,0,0,1,1.73-1.74A5,5,0,0,1,126.7,4a4.65,4.65,0,0,1,2.47.67,4.77,4.77,0,0,1,1.74,1.77A4.91,4.91,0,0,1,131.55,8.86ZM126.7,12a2.77,2.77,0,0,0,1.49-.42,2.93,2.93,0,0,0,1.05-1.13,3.22,3.22,0,0,0,.38-1.56,3.17,3.17,0,0,0-.38-1.54,3.05,3.05,0,0,0-1.05-1.15,2.81,2.81,0,0,0-3,0,2.91,2.91,0,0,0-1.06,1.14,3.28,3.28,0,0,0,0,3.1,2.86,2.86,0,0,0,1.07,1.14A2.8,2.8,0,0,0,126.7,12Zm7.61-.12v-6h-1.56V4.23h3.37V5.4a5.16,5.16,0,0,1,3.19-1.3,2.17,2.17,0,0,1,2.19,1.45,5.42,5.42,0,0,1,3.35-1.45,2.4,2.4,0,0,1,1.78.66,2.77,2.77,0,0,1,.67,2v5.06h1.61v1.61h-3.42V7.61a6.47,6.47,0,0,0-.06-1,1.15,1.15,0,0,0-.32-.64,1.08,1.08,0,0,0-.82-.27,3,3,0,0,0-1.17.3,6.83,6.83,0,0,0-1.41.9v4.93h1.57v1.61H139.9V7.38a2.28,2.28,0,0,0-.27-1.27,1,1,0,0,0-.89-.39,5,5,0,0,0-2.62,1.2v4.93h1.62v1.61h-5.1V11.85Z"/></svg>